<?xml version="1.0" encoding="UTF-8"?>
<svg width="167px" height="30px" viewBox="0 0 167 30" version="1.1" xmlns="http://www.w3.org/2000/svg" xmlns:xlink="http://www.w3.org/1999/xlink">
    <title>横版标准</title>
    <g id="页面-1" stroke="none" stroke-width="1" fill="none" fill-rule="evenodd">
        <g id="-My-profile-dropdown" transform="translate(-50.000000, -30.000000)" fill-rule="nonzero">
            <g id="横版标准" transform="translate(50.000000, 30.000000)">
                <g id="Group-4-Copy-5">
                    <path d="M10.0018149,5.60606061 L20.1551724,5.60606061 L20.1551724,5.60606061 L20.1551724,15.9090909 C20.1551724,22.9381695 14.4559442,28.6363636 7.42558984,28.6363636 L6.81941924,28.6363636 L6.81941924,28.6363636 L6.81941924,8.78787879 C6.81941924,7.03060914 8.24422631,5.60606061 10.0018149,5.60606061 Z" id="Rectangle" fill="#8DDEB9"></path>
                    <path d="M14.2450091,0 C18.4297437,0 21.8221416,3.3917822 21.8221416,7.57575758 L21.8221416,13.8888889 C21.8221416,24.999723 15.2805505,30 8.33484574,30 L1.5154265,30 C1.49884268,30 1.48232108,30 1.46586575,29.999205 L1.36388385,30 L1.36386855,29.9925174 C0.598081974,29.9164915 0,29.2705021 0,28.4848485 L0,9.22536089 L0.00134374107,9.02239162 L0.00372898851,8.82473223 L0.00730171133,8.6322572 C0.00799592805,8.60060309 0.00873947788,8.56915976 0.00953228834,8.53792461 L0.0148796982,8.3529908 C0.0158692611,8.32257786 0.0169079394,8.29236788 0.0179956609,8.26235821 L0.0251099265,8.0846832 L0.0333977452,7.91169048 L0.0428556365,7.74325456 L0.0534801199,7.57924989 L0.0652677147,7.41955097 L0.0782149402,7.26403227 C0.0804692537,7.23845386 0.0827717401,7.21304441 0.085122327,7.18780129 L0.0998024729,7.03831759 C0.102345171,7.01372932 0.104935825,6.98930217 0.107574362,6.9650335 L0.123979597,6.82130238 L0.141530541,6.68124941 C0.14455098,6.65820679 0.147619013,6.63531218 0.150734565,6.612563 L0.169997545,6.47779192 L0.190397533,6.3463852 C0.197386644,6.30312974 0.204564675,6.26041409 0.211931048,6.21821732 L0.234594608,6.09316276 C0.238465845,6.0725728 0.242384023,6.05210733 0.246349068,6.03176376 L0.270701172,5.91114383 L0.29617462,5.79332344 L0.322765933,5.67817706 L0.350471628,5.56557917 L0.379288227,5.45540424 L0.394112027,5.40118618 L0.394112027,5.40118618 L0.424588456,5.29441036 L0.456167085,5.18974374 L0.488844434,5.08706077 L0.522617026,4.98623594 C0.528336866,4.96957968 0.534102199,4.95299561 0.539912947,4.93648111 L0.575321872,4.83820815 C0.581314002,4.8219615 0.587351404,4.80577921 0.593434004,4.78965865 L0.630471434,4.69365514 L0.668590181,4.5990077 L0.707786765,4.5055908 L0.748057707,4.41327894 C0.754858867,4.39797874 0.761704647,4.38271936 0.768594973,4.36749817 L0.810470925,4.27660852 L0.831808739,4.23146824 L0.831808739,4.23146824 L0.875281868,4.14171838 L0.919815433,4.05257147 L0.965405952,3.963902 L1.01204994,3.87558445 C1.67242391,2.64101656 2.64149587,1.67212044 3.87628783,1.0118663 L3.96680642,0.964092589 L4.05769784,0.917424906 L4.14909718,0.871866994 L4.24113949,0.8274226 L4.33395986,0.784095468 C4.34950227,0.776967592 4.36508272,0.769886426 4.38070402,0.762852044 L4.47494474,0.721207824 L4.57030118,0.680690226 L4.66690844,0.641302992 L4.76490157,0.603049868 C4.78135675,0.596769065 4.79787531,0.590535673 4.81446005,0.584349768 L4.91478525,0.547804829 C4.93164599,0.541809191 4.94857855,0.535861198 4.96558574,0.529960927 L5.06854694,0.495132598 L5.12074141,0.478149106 L5.12074141,0.478149106 L5.22664249,0.445045811 C5.24446632,0.439624717 5.26237886,0.434251733 5.28038288,0.428926942 L5.38952779,0.397557105 L5.50100406,0.367347585 C5.5385664,0.357471547 5.5765398,0.34778952 5.6149468,0.338302127 L5.73149105,0.310424477 L5.8507719,0.283718379 C5.87088759,0.2793652 5.89112295,0.275060991 5.91148076,0.270805832 L6.03511976,0.245864079 L6.16183304,0.222103238 L6.29175566,0.199527053 L6.42502269,0.178139267 L6.56176921,0.157943624 L6.6314895,0.148294028 L6.6314895,0.148294028 L6.77370852,0.129893621 C6.82174355,0.123960195 6.87041478,0.118227019 6.91974472,0.112694719 L7.06973314,0.0967010642 L7.22380889,0.081916402 C7.24983629,0.0795532489 7.27603962,0.0772406267 7.30242171,0.074978613 L7.46288168,0.0620144594 L7.62776664,0.0502686583 L7.79721166,0.0397449538 L7.97135182,0.03044709 L8.15032219,0.0223788112 L8.33425784,0.0155438614 L8.52329384,0.00994598455 L8.71756526,0.00558892503 L8.91720718,0.00247642688 L9.22703519,0 L14.2450091,0 Z M2.74590418,8.2558515 L2.74250631,8.346167 L2.73758204,8.51159689 L2.7336733,8.68270152 L2.73076471,8.85966233 L2.72884084,9.04266079 L2.7277677,9.23187833 L2.7277677,13.7495025 C6.59812061,14.3987336 9.54718693,17.7641245 9.54718693,21.8181818 C9.54718693,23.9136741 8.75927642,25.8251733 7.46349973,27.2727273 L8.33484574,27.2727273 C11.1845902,27.2727273 13.7562068,26.2473115 15.6371891,24.3039035 L15.7040726,24.2341061 C17.8406836,21.9820176 19.0696391,18.5611906 19.0940046,14.0266403 L19.0945181,13.8888889 L19.0945181,8.31424418 C16.9297681,8.83770056 14.7126688,10.8355747 13.4791894,12.9138031 C13.2954726,13.2233385 12.916118,13.6363862 12.2749546,13.6363862 C11.731091,13.6363862 11.3591614,13.3240224 11.204948,13.1206837 C9.2869458,10.5916929 6.4190279,8.65151665 2.74590418,8.2558515 Z M2.72784306,16.5354977 L2.72791343,27.1008477 C5.08084902,26.4952841 6.81941924,24.3597286 6.81941924,21.8181818 C6.81941924,19.2766097 5.08081435,17.1410368 2.72784306,16.5354977 Z M14.2450903,2.72727273 L9.23496044,2.72727273 L9.04264279,2.72846524 L8.85676727,2.73050394 L8.67714212,2.73354371 C8.64771481,2.7341347 8.61853994,2.73476811 8.58961352,2.73544429 L8.33587592,2.74269423 L8.17385134,2.74883889 L8.0173101,2.75605245 L7.86606043,2.76435183 L7.71991056,2.77375402 L7.57866873,2.78427594 C7.55552679,2.78612385 7.53258134,2.78801912 7.50982843,2.78996211 L7.37558913,2.80219545 L7.24577847,2.81559092 L7.1202047,2.8301655 L6.99867605,2.84593611 C6.93889105,2.85412326 6.88055106,2.86276529 6.8235482,2.87187173 L6.71129341,2.89070664 C6.69287076,2.89394994 6.6745887,2.89724555 6.65644323,2.90059382 L6.54917744,2.92131818 L6.44499799,2.94332338 C6.39364787,2.95464902 6.34338322,2.96646132 6.29409616,2.97876982 L6.19679353,3.00405127 C6.18078302,3.00837605 6.16487313,3.01275668 6.14905989,3.0171935 L6.05530807,3.04449156 L5.96368376,3.07315523 L5.91860951,3.08800445 L5.91860951,3.08800445 L5.82981691,3.11874833 L5.74267242,3.1509002 L5.69965829,3.16750942 L5.69965829,3.16750942 L5.61462641,3.20180508 L5.53076322,3.23755111 L5.44787697,3.27476448 L5.36577591,3.31346215 L5.28426825,3.35366108 L5.24367704,3.3743288 L5.24367704,3.3743288 L5.16269997,3.41681139 C4.40327191,3.82288426 3.82357807,4.40247291 3.4174315,5.16176317 L3.37561622,5.24142097 C3.36876993,5.25471905 3.36198491,5.26803053 3.35526083,5.28135921 L3.31564496,5.36156774 L3.27747611,5.44237024 L3.24073885,5.52394817 L3.21907095,5.5742737 C7.45073285,6.12094483 10.7566383,8.42722027 12.2749546,10.149036 C13.6392738,7.92065291 16.1198956,6.12536341 18.6775638,5.60641847 C17.9328833,3.93306685 16.2678917,2.75941432 14.3252022,2.72792229 L14.2450903,2.72727273 Z" id="Combined-Shape" fill="#484848"></path>
                </g>
                <path d="M47.6046204,11.688895 L47.621583,11.7261561 L51.2314174,19.9756061 L54.6602681,11.7482518 C54.9499805,11.0530682 55.7484987,10.7243262 56.4438084,11.0139861 C57.1391182,11.3036459 57.4679198,12.1020192 57.1782074,12.7972027 L52.2887517,24.5297674 L52.1924109,24.7584864 C51.5843437,26.1862314 51.0126432,27.2222545 50.2860172,28.0740529 C49.2343972,29.3068305 47.9345283,30 46.3720508,30 C45.6187985,30 45.008167,29.3894792 45.008167,28.6363636 C45.008167,27.8966965 45.5971851,27.2945771 46.3318372,27.2733086 L46.3720508,27.2727273 C47.0541831,27.2727273 47.6424776,26.9702842 48.2040929,26.3130629 L48.2727334,26.2308102 C48.3755078,26.1047605 48.4774747,25.96667 48.5790501,25.8162145 L48.6467136,25.7140753 C48.6579827,25.6967456 48.6692481,25.6792624 48.6805105,25.6616252 L48.7480513,25.5539505 C48.7705556,25.5174405 48.7930518,25.4803111 48.8155448,25.4425585 L48.8830181,25.3274282 C48.8942636,25.307927 48.9055093,25.2882692 48.9167559,25.2684544 L48.9842506,25.1476762 C49.0067553,25.1067861 49.0292681,25.0652639 49.0517936,25.0231062 L49.1194125,24.894723 L49.1871345,24.7625052 L49.2549873,24.6264315 C49.2663086,24.60343 49.2776362,24.5802671 49.2889712,24.5569421 L49.3570713,24.4150444 L49.4253705,24.2692376 C49.4367718,24.2446094 49.4481825,24.2198176 49.4596032,24.1948615 L49.5282525,24.0431506 C49.5397156,24.0175359 49.5511898,23.9917559 49.5626758,23.9658105 L49.6317367,23.8081476 L49.7011064,23.64649 L49.7708122,23.4808164 L49.7790327,23.4609091 L45.1225186,12.8192985 C44.820601,12.1293261 45.1352829,11.3252847 45.8253804,11.0234218 C46.5029308,10.7270473 47.2904599,11.0249467 47.6046204,11.688895 Z M102.159974,11.688895 L102.176937,11.7261561 L105.786771,19.9756061 L109.215622,11.7482518 C109.505334,11.0530682 110.303853,10.7243262 110.999162,11.0139861 C111.694472,11.3036459 112.023274,12.1020192 111.733561,12.7972027 L106.844106,24.5297674 L106.747765,24.7584864 C106.139698,26.1862314 105.567997,27.2222545 104.841371,28.0740529 C103.789751,29.3068305 102.489882,30 100.927405,30 C100.174152,30 99.5635209,29.3894792 99.5635209,28.6363636 C99.5635209,27.8966965 100.152539,27.2945771 100.887191,27.2733086 L100.927405,27.2727273 C101.609537,27.2727273 102.197831,26.9702842 102.759447,26.3130629 L102.828087,26.2308102 C102.930862,26.1047605 103.032829,25.96667 103.134404,25.8162145 L103.202067,25.7140753 C103.213337,25.6967456 103.224602,25.6792624 103.235864,25.6616252 L103.303405,25.5539505 C103.325909,25.5174405 103.348406,25.4803111 103.370899,25.4425585 L103.438372,25.3274282 C103.449618,25.307927 103.460863,25.2882692 103.47211,25.2684544 L103.539604,25.1476762 C103.562109,25.1067861 103.584622,25.0652639 103.607147,25.0231062 L103.674766,24.894723 L103.742488,24.7625052 L103.810341,24.6264315 C103.821662,24.60343 103.83299,24.5802671 103.844325,24.5569421 L103.912425,24.4150444 L103.980724,24.2692376 C103.992126,24.2446094 104.003536,24.2198176 104.014957,24.1948615 L104.083606,24.0431506 C104.09507,24.0175359 104.106544,23.9917559 104.11803,23.9658105 L104.187091,23.8081476 L104.25646,23.64649 L104.326166,23.4808164 L104.334387,23.4609091 L99.6778725,12.8192985 C99.3759549,12.1293261 99.6906368,11.3252847 100.380734,11.0234218 C101.058285,10.7270473 101.845814,11.0249467 102.159974,11.688895 Z M36.8248639,5.45454545 C39.8378729,5.45454545 42.2803993,7.89662864 42.2803993,10.9090909 C42.2803993,12.2063726 41.8274344,13.3978777 41.0710089,14.3341292 L41.0212481,14.3948258 L41.0024401,14.4169697 L41.062491,14.4535798 C42.5678508,15.38809 43.5846421,17.0349012 43.6417469,18.9229812 L43.6435522,19.0007082 L43.6442831,19.0909091 C43.6442831,22.0732467 41.250363,24.4965559 38.278965,24.5447238 L38.1887477,24.5454545 L31.3693285,24.5454545 C30.6295271,24.5454545 30.0272985,23.9565433 30.0060261,23.2220245 L30.0054446,23.1818182 L30.0054446,6.81818182 C30.0054446,6.0785147 30.5944627,5.4763953 31.3291148,5.45512682 L31.3693285,5.45454545 L36.8248639,5.45454545 Z M62.738657,6.81818182 C63.4784583,6.81818182 64.080687,7.40709303 64.1019594,8.14161182 L64.1025408,8.18181818 L64.1025408,10.9090909 L66.8303085,10.9090909 C67.5835608,10.9090909 68.1941924,11.5196117 68.1941924,12.2727273 C68.1941924,13.0123944 67.6051743,13.6145138 66.8705222,13.6357823 L66.8303085,13.6363636 L64.1025408,13.6363636 L64.1025408,19.0909091 C64.1025408,19.1414927 64.1027916,19.1911608 64.1032882,19.2399273 L64.1055112,19.3835358 L64.1091807,19.521818 L64.1142678,19.6548574 C64.1152321,19.6765983 64.1162544,19.6981244 64.1173338,19.7194371 L64.1244927,19.8447686 L64.1329967,19.9650659 L64.1428166,20.0804124 C64.1445615,20.0992289 64.1463597,20.1178426 64.1482111,20.1362552 L64.1599508,20.2443318 C64.1661339,20.2971777 64.1727834,20.3482452 64.1798829,20.3975812 L64.1946769,20.4939586 C64.197241,20.5096415 64.1998539,20.5251355 64.2025149,20.5404421 L64.2190547,20.6300503 L64.236722,20.7152502 C64.2397589,20.7290873 64.2428416,20.7427444 64.2459694,20.7562229 L64.2652735,20.8349662 C64.2685796,20.8477379 64.2719298,20.8603344 64.2753231,20.8727577 L64.296199,20.9452324 C64.3104566,20.9921815 64.3253885,21.0364139 64.3409562,21.0780411 L64.3647795,21.1385417 C64.4497963,21.3435524 64.5518008,21.4782877 64.6651981,21.5588448 L64.6943084,21.5785574 C64.6992812,21.5817648 64.7043172,21.5849335 64.7094196,21.5880636 L64.7408632,21.6063867 L64.77408,21.6238056 L64.8092438,21.6403388 L64.846529,21.6560038 C64.8529296,21.6585432 64.8594259,21.6610473 64.8660213,21.6635164 L64.9068148,21.6779129 L64.9501646,21.6914861 L64.9962448,21.7042541 L65.0452298,21.7162347 L65.0972932,21.7274461 L65.1526091,21.7379058 L65.2113519,21.747632 L65.2736955,21.7566427 L65.3398138,21.7649556 L65.4098811,21.7725889 L65.4840714,21.7795605 L65.603468,21.7888161 L65.7331205,21.7966835 L65.8736161,21.8032235 L66.0255423,21.8084965 L66.2469072,21.8136608 L66.4277896,21.8162129 L66.6898949,21.8179691 L66.8303085,21.8181818 C67.5835608,21.8181818 68.1941924,22.4287026 68.1941924,23.1818182 C68.1941924,23.9349338 67.5835608,24.5454545 66.8303085,24.5454545 L66.3998316,24.5443215 L66.098488,24.541113 L65.9379924,24.5379038 L65.742963,24.5318308 L65.6520555,24.52793 L65.5646514,24.5233967 L65.480075,24.5181888 L65.3570339,24.5090189 L65.2365534,24.4980929 L65.1565292,24.4897627 L65.0759535,24.4805462 L64.9941502,24.4704011 C64.2506068,24.37482 63.6279414,24.1675868 63.0852556,23.7820642 C61.8971367,22.9380276 61.3885787,21.4673979 61.3750509,19.1851571 L61.3747731,13.6363636 L60.0108893,13.6363636 C59.257637,13.6363636 58.6470054,13.0258429 58.6470054,12.2727273 C58.6470054,11.5330602 59.2360235,10.9309408 59.9706756,10.9096723 L60.0108893,10.9090909 L61.3747731,10.9090909 L61.3747731,8.18181818 C61.3747731,7.42870258 61.9854047,6.81818182 62.738657,6.81818182 Z M75.6955535,10.9090909 C78.9597787,10.9090909 81.7761796,13.6526283 81.8321812,17.019012 L81.8330309,17.1212121 L81.8339768,17.4461112 L81.8339768,17.5885602 L81.8329428,17.7427676 C81.824604,18.4764511 81.2378806,19.0693941 80.5090403,19.0903367 L80.469147,19.0909091 L72.3816189,19.0909091 L72.3831081,19.0964571 C72.7684818,20.5977436 74.2480225,21.7901676 75.9022961,21.8176953 L75.9607532,21.8181818 C77.0967264,21.8181818 77.753056,21.6510368 78.5227541,21.1221456 L78.6261044,21.0494661 C78.6781675,21.0120373 78.7308516,20.9729624 78.7843325,20.9321836 L78.8924085,20.8483371 L79.0029213,20.7598445 C79.587531,20.2849355 80.4465105,20.3737792 80.9215058,20.9582827 C81.396501,21.5427864 81.3076411,22.40161 80.7230316,22.8765191 C79.2322186,24.0875847 77.9529371,24.5454545 75.9607532,24.5454545 C72.5719389,24.5454545 69.6177133,21.7907244 69.5589676,18.4351976 L69.5580762,18.3333333 L69.5580762,17.1212121 C69.5580762,13.6951174 72.3010688,10.9090909 75.6955535,10.9090909 Z M91.3802178,5.45454545 C94.3932268,5.45454545 96.8357532,7.89662864 96.8357532,10.9090909 C96.8357532,12.2063726 96.3827883,13.3978777 95.6263628,14.3341292 L95.576602,14.3948258 L95.557794,14.4169697 L95.6178449,14.4535798 C97.1232047,15.38809 98.139996,17.0349012 98.1971008,18.9229812 L98.1989061,19.0007082 L98.199637,19.0909091 C98.199637,22.0732467 95.8057169,24.4965559 92.8343189,24.5447238 L92.7441016,24.5454545 L85.9246824,24.5454545 C85.184881,24.5454545 84.5826524,23.9565433 84.56138,23.2220245 L84.5607985,23.1818182 L84.5607985,6.81818182 C84.5607985,6.0785147 85.1498166,5.4763953 85.8844687,5.45512682 L85.9246824,5.45454545 L91.3802178,5.45454545 Z M117.294011,6.81818182 C118.033812,6.81818182 118.636041,7.40709303 118.657313,8.14161182 L118.657895,8.18181818 L118.657895,10.9090909 L121.385662,10.9090909 C122.138915,10.9090909 122.749546,11.5196117 122.749546,12.2727273 C122.749546,13.0123944 122.160528,13.6145138 121.425876,13.6357823 L121.385662,13.6363636 L118.657895,13.6363636 L118.657895,19.0909091 C118.657895,19.1414927 118.658146,19.1911608 118.658642,19.2399273 L118.660865,19.3835358 L118.664535,19.521818 L118.669622,19.6548574 C118.670586,19.6765983 118.671608,19.6981244 118.672688,19.7194371 L118.679847,19.8447686 L118.688351,19.9650659 L118.698171,20.0804124 C118.699915,20.0992289 118.701714,20.1178426 118.703565,20.1362552 L118.715305,20.2443318 C118.721488,20.2971777 118.728137,20.3482452 118.735237,20.3975812 L118.750031,20.4939586 C118.752595,20.5096415 118.755208,20.5251355 118.757869,20.5404421 L118.774409,20.6300503 L118.792076,20.7152502 C118.795113,20.7290873 118.798195,20.7427444 118.801323,20.7562229 L118.820627,20.8349662 C118.823934,20.8477379 118.827284,20.8603344 118.830677,20.8727577 L118.851553,20.9452324 C118.86581,20.9921815 118.880742,21.0364139 118.89631,21.0780411 L118.920133,21.1385417 C119.00515,21.3435524 119.107155,21.4782877 119.220552,21.5588448 L119.249662,21.5785574 C119.254635,21.5817648 119.259671,21.5849335 119.264773,21.5880636 L119.296217,21.6063867 L119.329434,21.6238056 L119.364598,21.6403388 L119.401883,21.6560038 C119.408283,21.6585432 119.41478,21.6610473 119.421375,21.6635164 L119.462169,21.6779129 L119.505519,21.6914861 L119.551599,21.7042541 L119.600584,21.7162347 L119.652647,21.7274461 L119.707963,21.7379058 L119.766706,21.747632 L119.829049,21.7566427 L119.895168,21.7649556 L119.965235,21.7725889 L120.039425,21.7795605 L120.158822,21.7888161 L120.288474,21.7966835 L120.42897,21.8032235 L120.580896,21.8084965 L120.802261,21.8136608 L120.983143,21.8162129 L121.245249,21.8179691 L121.385662,21.8181818 C122.138915,21.8181818 122.749546,22.4287026 122.749546,23.1818182 C122.749546,23.9349338 122.138915,24.5454545 121.385662,24.5454545 L120.955186,24.5443215 L120.653842,24.541113 L120.493346,24.5379038 L120.298317,24.5318308 L120.207409,24.52793 L120.120005,24.5233967 L120.035429,24.5181888 L119.912388,24.5090189 L119.791907,24.4980929 L119.711883,24.4897627 L119.631307,24.4805462 L119.549504,24.4704011 C118.805961,24.37482 118.183295,24.1675868 117.64061,23.7820642 C116.452491,22.9380276 115.943933,21.4673979 115.930405,19.1851571 L115.930127,13.6363636 L114.566243,13.6363636 C113.812991,13.6363636 113.202359,13.0258429 113.202359,12.2727273 C113.202359,11.5330602 113.791377,10.9309408 114.52603,10.9096723 L114.566243,10.9090909 L115.930127,10.9090909 L115.930127,8.18181818 C115.930127,7.42870258 116.540759,6.81818182 117.294011,6.81818182 Z M130.250907,10.9090909 C133.515133,10.9090909 136.331534,13.6526283 136.387535,17.019012 L136.388385,17.1212121 L136.389331,17.4461112 L136.389331,17.5885602 L136.388297,17.7427676 C136.379958,18.4764511 135.793234,19.0693941 135.064394,19.0903367 L135.024501,19.0909091 L126.936973,19.0909091 L126.938462,19.0964571 C127.323836,20.5977436 128.803376,21.7901676 130.45765,21.8176953 L130.516107,21.8181818 C131.65208,21.8181818 132.30841,21.6510368 133.078108,21.1221456 L133.181458,21.0494661 C133.233521,21.0120373 133.286205,20.9729624 133.339686,20.9321836 L133.447762,20.8483371 L133.558275,20.7598445 C134.142885,20.2849355 135.001864,20.3737792 135.47686,20.9582827 C135.951855,21.5427864 135.862995,22.40161 135.278385,22.8765191 C133.787573,24.0875847 132.508291,24.5454545 130.516107,24.5454545 C127.127293,24.5454545 124.173067,21.7907244 124.114322,18.4351976 L124.11343,18.3333333 L124.11343,17.1212121 C124.11343,13.6951174 126.856423,10.9090909 130.250907,10.9090909 Z M161.544465,10.9090909 C164.527344,10.9090909 166.951093,13.3025767 166.99927,16.2734355 L167,16.3636364 L167,19.0909091 C167,22.1033714 164.557473,24.5454545 161.544465,24.5454545 C158.561585,24.5454545 156.137837,22.1519688 156.08966,19.18111 L156.088929,19.0909091 L156.088929,16.3636364 C156.088929,13.3511741 158.531456,10.9090909 161.544465,10.9090909 Z M146.617514,5.45454545 C149.174128,5.45454545 151.557296,6.71106258 153.005539,8.78616167 C153.436584,9.40377909 153.285246,10.2538239 152.667516,10.6847902 C152.049787,11.1157564 151.199587,10.9644456 150.768543,10.3468282 C149.827878,8.99900621 148.27796,8.18181818 146.617514,8.18181818 C144.007495,8.18181818 141.886714,10.2761182 141.84456,12.8756197 L141.84392,12.9545455 L141.84392,17.0454545 C141.84392,19.6813591 143.981131,21.8181818 146.617514,21.8181818 C148.617184,21.8181818 150.557513,20.6010012 151.301294,18.9417388 L151.323974,18.89 L151.331684,18.7578889 L151.339439,18.6066711 L151.346578,18.4490394 L151.353118,18.2848908 L151.364463,17.9366303 L151.369299,17.7523121 L151.375545,17.46281 L151.382081,17.0519524 L151.385703,16.7247171 L151.388379,16.3633333 L147.678467,16.3636364 C146.925213,16.3637214 146.314513,15.7532694 146.314428,15.0001539 C146.314345,14.2604868 146.903294,13.6583009 147.637944,13.6369495 L147.776489,13.6363526 L152.756452,13.6363636 C153.509132,13.6371703 154.118875,14.2474545 154.118875,15 L154.11772,16.0416398 L154.113333,16.7523618 L154.109688,17.0828077 L154.104957,17.3981353 L154.099074,17.698825 L154.094481,17.8913903 L154.089329,18.0778059 L154.083599,18.2582144 L154.07388,18.5178753 L154.066624,18.6838892 L154.058724,18.8443945 L154.050162,18.9995338 L154.040918,19.1494494 L154.030974,19.2942836 C154.02158,19.424103 153.993644,19.5519089 153.948018,19.6738115 C152.875725,22.5387091 149.817028,24.5454545 146.617514,24.5454545 C142.516056,24.5454545 139.183401,21.2544117 139.117157,17.1694808 L139.116152,17.0454545 L139.116152,12.9545455 C139.116152,8.81240985 142.474625,5.45454545 146.617514,5.45454545 Z M36.8248639,8.18181818 L32.7332123,8.18181818 L32.7332123,21.8181818 L38.1887477,21.8181818 C39.6952522,21.8181818 40.9165154,20.5971402 40.9165154,19.0909091 C40.9165154,17.6014138 39.7222407,16.3908058 38.2388576,16.3640873 L38.1887477,16.3636364 L36.8248639,16.3636364 C35.0245372,16.3636364 35.0065339,13.6906364 36.7708541,13.6371764 L36.8248639,13.6363636 L36.8749737,13.6359127 C38.3583568,13.6091942 39.5526316,12.3985862 39.5526316,10.9090909 C39.5526316,9.40285985 38.3313683,8.18181818 36.8248639,8.18181818 Z M91.3802178,8.18181818 L87.2885662,8.18181818 L87.2885662,21.8181818 L92.7441016,21.8181818 C94.2506061,21.8181818 95.4718693,20.5971402 95.4718693,19.0909091 C95.4718693,17.6014138 94.2775946,16.3908058 92.7942115,16.3640873 L92.7441016,16.3636364 L91.3802178,16.3636364 C89.5798911,16.3636364 89.5618878,13.6906364 91.326208,13.6371764 L91.3802178,13.6363636 L91.4303276,13.6359127 C92.9137107,13.6091942 94.1079855,12.3985862 94.1079855,10.9090909 C94.1079855,9.40285985 92.8867222,8.18181818 91.3802178,8.18181818 Z M161.544465,13.6363636 C160.054699,13.6363636 158.843872,14.8304217 158.817149,16.3135356 L158.816697,16.3636364 L158.816697,19.0909091 C158.816697,20.5971402 160.037959,21.8181818 161.544465,21.8181818 C163.03423,21.8181818 164.245058,20.6241238 164.271781,19.1410098 L164.272232,19.0909091 L164.272232,16.3636364 C164.272232,14.8574053 163.05097,13.6363636 161.544465,13.6363636 Z M75.6955535,13.6363636 C74.0802319,13.6363636 72.7214422,14.786778 72.3726415,16.3360965 L72.3666162,16.3636364 L79.0184292,16.3636364 L79.0144767,16.3459092 C78.6549002,14.8279995 77.2756307,13.6637097 75.7494774,13.6368385 L75.6955535,13.6363636 Z M130.250907,13.6363636 C128.635586,13.6363636 127.276796,14.786778 126.927995,16.3360965 L126.92197,16.3636364 L133.573783,16.3636364 L133.569831,16.3459092 C133.210254,14.8279995 131.830985,13.6637097 130.304831,13.6368385 L130.250907,13.6363636 Z" id="Combined-Shape" fill="#484848"></path>
            </g>
        </g>
    </g>
</svg>