<?xml version="1.0" encoding="UTF-8"?>
<svg width="112px" height="20px" viewBox="0 0 112 20" version="1.1" xmlns="http://www.w3.org/2000/svg" xmlns:xlink="http://www.w3.org/1999/xlink">
    <title>横版绿线</title>
    <g id="页面-1" stroke="none" stroke-width="1" fill="none" fill-rule="evenodd">
        <g id="-My-profile-dropdown_481px" transform="translate(-20.000000, -15.000000)" fill="#64FFC9" fill-rule="nonzero">
            <g id="横版绿线" transform="translate(20.000000, 15.000000)">
                <path d="M9.55353902,0 C12.3600676,0 14.6352087,2.26118813 14.6352087,5.05050505 L14.6352087,9.25925929 C14.6352087,16.666482 10.2480338,20 5.58983666,20 L1.01633394,20 C1.00521186,20 0.994131503,20 0.983095591,19.99947 L0.914700544,20 L0.91469029,19.9950116 C0.401108873,19.9443277 0,19.5136681 0,18.989899 L0,6.1502406 L0.000901193466,6.01492775 L0.00250088276,5.88315482 L0.00489696116,5.75483813 C0.00536253358,5.73373539 0.00586120799,5.71277317 0.00639291325,5.69194974 L0.0099792,5.56866054 C0.0106428559,5.54838524 0.0113394613,5.52824525 0.0120689452,5.50823881 L0.0168401858,5.3897888 L0.0223984857,5.27446032 L0.0287415071,5.16216971 L0.0358669024,5.05283326 L0.0437723644,4.94636731 L0.0524555252,4.84268818 C0.0539674033,4.82563591 0.0555115906,4.80869627 0.0570880261,4.79186753 L0.0669333953,4.69221173 C0.0686386817,4.67581955 0.0703761249,4.65953478 0.0721456842,4.64335567 L0.0831479971,4.54753492 L0.0949186889,4.45416627 C0.0969443746,4.43880453 0.0990019731,4.42354145 0.101091444,4.40837533 L0.114010329,4.31852795 L0.127691759,4.23092346 C0.132379071,4.20208649 0.137193079,4.17360939 0.142133397,4.14547821 L0.157332915,4.06210851 C0.159929191,4.04838187 0.162556952,4.03473822 0.165216139,4.02117584 L0.181548087,3.94076256 L0.198632081,3.86221563 L0.216465774,3.78545137 L0.235046838,3.71038611 L0.254372947,3.63693616 L0.264314654,3.60079079 L0.284753932,3.52960691 L0.305932411,3.45982916 L0.327847762,3.39137385 L0.350497648,3.32415729 C0.354333709,3.31305312 0.35820028,3.30199707 0.362097311,3.2909874 L0.385844614,3.2254721 C0.38986328,3.214641 0.393912314,3.20385281 0.397991665,3.19310577 L0.42283114,3.12910342 L0.448395811,3.06600513 L0.474683339,3.0037272 L0.501691397,2.94218596 C0.506252653,2.93198583 0.51084383,2.92181291 0.515464897,2.91166544 L0.543549365,2.85107234 L0.557859753,2.82097883 L0.587015386,2.76114559 L0.616882208,2.70171431 L0.647457883,2.64260133 L0.678740083,2.58372297 C1.12162562,1.76067771 1.77154214,1.11474696 2.59966609,0.674577535 L2.66037317,0.642728394 L2.72133029,0.611616606 L2.78262805,0.581244667 L2.84435702,0.551615071 L2.90660781,0.522730313 C2.91703146,0.517978394 2.92748063,0.513257616 2.93795719,0.50856803 L3.00116055,0.480805212 L3.06511217,0.453793485 L3.12990267,0.427535323 L3.19562261,0.402033242 C3.20665842,0.39784604 3.21773674,0.393690444 3.22885943,0.389566515 L3.2961434,0.365203222 C3.30745121,0.361206131 3.31880717,0.357240798 3.33021319,0.353307283 L3.39926501,0.330088394 L3.43426969,0.318766071 L3.50529317,0.296697212 C3.51724687,0.293083141 3.52926007,0.289501152 3.54133463,0.285951293 L3.61453361,0.265038071 L3.68929614,0.244898394 C3.71448764,0.238314364 3.73995484,0.231859677 3.76571282,0.225534747 L3.84387424,0.206949657 L3.92387097,0.189145586 C3.93736174,0.186243465 3.95093275,0.18337399 3.9645859,0.180537222 L4.04750546,0.163909384 L4.13248683,0.148068828 L4.21962056,0.13301803 L4.30899725,0.118759515 L4.4007075,0.105295747 L4.44746601,0.0988626869 L4.54284643,0.0865957475 C4.57506154,0.0826401313 4.60770332,0.0788180101 4.64078687,0.0751298081 L4.74137792,0.0644673737 L4.84471011,0.0546109394 C4.86216565,0.0530354949 4.87973918,0.0514937475 4.89743254,0.0499857374 L5.00504634,0.0413429697 L5.11562795,0.0335124343 L5.2292677,0.0264966364 L5.34605636,0.0202980606 L5.46608438,0.0149192121 L5.58944242,0.0103625758 L5.71622104,0.00663065657 L5.84651088,0.00372594949 L5.98040241,0.00165094949 L6.18819127,0 L9.55353902,0 Z M31.926452,7.79259667 L31.9378281,7.81743737 L34.3587949,13.3170707 L36.6583834,7.83216788 C36.8526815,7.36871212 37.3882147,7.14955081 37.8545302,7.34265737 C38.3208457,7.53576394 38.5413594,8.06801283 38.3470613,8.53146848 L35.0679053,16.3531783 L35.0032935,16.5056576 C34.595488,17.4574876 34.2120721,18.1481697 33.7247541,18.7160353 C33.0194759,19.537887 32.1477076,20 31.0998185,20 C30.5946433,20 30.185118,19.5929862 30.185118,19.0909091 C30.185118,18.5977977 30.5801481,18.1963847 31.0728489,18.1822058 L31.0998185,18.1818182 C31.5572964,18.1818182 31.9518412,17.9801895 32.3284935,17.5420419 L32.3745278,17.4872068 C32.4434544,17.4031736 32.5118393,17.3111133 32.5799617,17.2108097 L32.6253408,17.1427169 C32.6328986,17.1311637 32.6404538,17.1195083 32.648007,17.1077501 L32.6933039,17.035967 C32.7083966,17.011627 32.7234838,16.986874 32.738569,16.9617057 L32.7838205,16.8849521 C32.7913624,16.8719513 32.7989045,16.8588462 32.8064471,16.8456363 L32.851713,16.7651175 C32.8668059,16.7378574 32.8819044,16.710176 32.8970113,16.6820708 L32.9423605,16.596482 L32.9877788,16.5083368 L33.0332849,16.417621 C33.0408776,16.4022867 33.0484746,16.3868447 33.0560765,16.3712947 L33.1017484,16.2766963 L33.1475538,16.1794917 C33.1552002,16.1630729 33.1628529,16.1465451 33.1705123,16.1299077 L33.2165526,16.0287671 C33.2242404,16.0116906 33.2319357,15.9945039 33.2396389,15.977207 L33.2859552,15.8720984 L33.3324785,15.7643267 L33.3792274,15.6538776 L33.3847405,15.6406061 L30.2618089,8.54619899 C30.0593252,8.08621737 30.2703694,7.5501898 30.7331893,7.34894788 C31.1875943,7.15136485 31.7157575,7.34996444 31.926452,7.79259667 Z M68.5144738,7.79259667 L68.5258499,7.81743737 L70.9468167,13.3170707 L73.2464052,7.83216788 C73.4407033,7.36871212 73.9762365,7.14955081 74.442552,7.34265737 C74.9088675,7.53576394 75.1293812,8.06801283 74.935083,8.53146848 L71.6559271,16.3531783 L71.5913153,16.5056576 C71.1835098,17.4574876 70.8000939,18.1481697 70.3127759,18.7160353 C69.6074977,19.537887 68.7357294,20 67.6878403,20 C67.1826651,20 66.7731397,19.5929862 66.7731397,19.0909091 C66.7731397,18.5977977 67.1681698,18.1963847 67.6608706,18.1822058 L67.6878403,18.1818182 C68.1453182,18.1818182 68.539863,17.9801895 68.9165153,17.5420419 L68.9625496,17.4872068 C69.0314761,17.4031736 69.0998611,17.3111133 69.1679835,17.2108097 L69.2133626,17.1427169 C69.2209204,17.1311637 69.2284756,17.1195083 69.2360288,17.1077501 L69.2813257,17.035967 C69.2964183,17.011627 69.3115056,16.986874 69.3265908,16.9617057 L69.3718423,16.8849521 C69.3793842,16.8719513 69.3869262,16.8588462 69.3944688,16.8456363 L69.4397347,16.7651175 C69.4548277,16.7378574 69.4699262,16.710176 69.485033,16.6820708 L69.5303823,16.596482 L69.5758006,16.5083368 L69.6213067,16.417621 C69.6288994,16.4022867 69.6364964,16.3868447 69.6440983,16.3712947 L69.6897702,16.2766963 L69.7355756,16.1794917 C69.743222,16.1630729 69.7508747,16.1465451 69.7585341,16.1299077 L69.8045743,16.0287671 C69.8122622,16.0116906 69.8199575,15.9945039 69.8276607,15.977207 L69.8739769,15.8720984 L69.9205003,15.7643267 L69.9672491,15.6538776 L69.9727623,15.6406061 L66.8498307,8.54619899 C66.647347,8.08621737 66.8583912,7.5501898 67.321211,7.34894788 C67.7756161,7.15136485 68.3037793,7.34996444 68.5144738,7.79259667 Z M1.84156448,5.503901 L1.83928567,5.56411133 L1.83598316,5.67439793 L1.83336173,5.78846768 L1.83141106,5.90644156 L1.83012081,6.02844053 L1.82940109,6.15458556 L1.82940109,9.16633495 C4.42508688,9.59915576 6.40290381,11.8427497 6.40290381,14.5454545 C6.40290381,15.9424494 5.87448476,17.2167822 5.00546091,18.1818182 L5.58983666,18.1818182 C7.50104257,18.1818182 9.22571959,17.4982077 10.4872167,16.2026023 L10.5320727,16.1560707 C11.9650094,14.6546784 12.789219,12.3741271 12.8055599,9.35109354 L12.8059044,9.25925929 L12.8059044,5.54282945 C11.3540959,5.89180037 9.86717906,7.22371646 9.03993538,8.60920212 C8.91672409,8.81555899 8.66230664,9.09092414 8.2323049,9.09092414 C7.867558,9.09092414 7.61812028,8.88268162 7.5146957,8.74712242 C6.22837082,7.06112859 4.3049768,5.76767777 1.84156448,5.503901 Z M1.82945163,11.0236652 L1.82949883,18.0672318 C3.40751551,17.6635227 4.57350272,16.2398191 4.57350272,14.5454545 C4.57350272,12.8510731 3.40749226,11.4273579 1.82945163,11.0236652 Z M24.6969147,3.63636364 C26.7176153,3.63636364 28.3557169,5.26441909 28.3557169,7.27272727 C28.3557169,8.13758172 28.051932,8.93191848 27.5446287,9.55608616 L27.5112562,9.59655051 L27.4986425,9.61131313 L27.5389161,9.6357199 C28.5484988,10.2587267 29.2304187,11.3566008 29.2687165,12.6153208 L29.2699272,12.6671388 L29.2704174,12.7272727 C29.2704174,14.7154978 27.6649141,16.3310373 25.6721202,16.3631492 L25.6116152,16.3636364 L21.0381125,16.3636364 C20.5419583,16.3636364 20.1380684,15.9710289 20.1238019,15.4813497 L20.123412,15.4545455 L20.123412,4.54545455 C20.123412,4.05234316 20.5184421,3.65093016 21.0111429,3.63675122 L21.0381125,3.63636364 L24.6969147,3.63636364 Z M42.076225,4.54545455 C42.5723793,4.54545455 42.9762691,4.93806199 42.9905356,5.42774118 L42.9909256,5.45454545 L42.9909256,7.27272727 L44.8203267,7.27272727 C45.3255019,7.27272727 45.7350272,7.67974111 45.7350272,8.18181818 C45.7350272,8.6749296 45.3399971,9.07634253 44.8472963,9.09052152 L44.8203267,9.09090909 L42.9909256,9.09090909 L42.9909256,12.7272727 C42.9909256,12.7609952 42.9910938,12.7941072 42.9914268,12.8266182 L42.9929177,12.9223572 L42.9953787,13.0145454 L42.9987904,13.1032383 C42.9994371,13.1177322 43.0001227,13.1320829 43.0008466,13.1462914 L43.0056478,13.2298458 L43.0113511,13.3100439 L43.0179369,13.3869416 C43.0191071,13.399486 43.0203131,13.4118951 43.0215547,13.4241701 L43.0294281,13.4962212 C43.0335748,13.5314518 43.0380344,13.5654968 43.0427957,13.5983875 L43.0527175,13.6626391 C43.0544371,13.6730943 43.0561895,13.6834236 43.0579741,13.6936281 L43.0690666,13.7533669 L43.0809154,13.8101668 C43.0829521,13.8193915 43.0850195,13.8284963 43.0871172,13.8374819 L43.1000637,13.8899775 C43.1022809,13.8984919 43.1045277,13.9068896 43.1068035,13.9151718 L43.1208041,13.9634883 C43.1303661,13.9947877 43.1403803,14.024276 43.1508209,14.0520274 L43.1667982,14.0923611 C43.2238155,14.2290349 43.2922257,14.3188585 43.3682766,14.3725632 L43.3877996,14.3857049 C43.3911347,14.3878432 43.3945121,14.3899557 43.3979341,14.3920424 L43.419022,14.4042578 L43.4412991,14.4158704 L43.464882,14.4268925 L43.4898877,14.4373359 C43.4941803,14.4390288 43.4985371,14.4406982 43.5029604,14.4423442 L43.5303189,14.4519419 L43.5593919,14.4609907 L43.5902959,14.4695027 L43.6231481,14.4774898 L43.6580649,14.484964 L43.695163,14.4919372 L43.7345593,14.4984213 L43.7763706,14.5044285 L43.8207135,14.5099704 L43.8677047,14.5150593 L43.917461,14.519707 L43.9975354,14.5258774 L44.084488,14.5311223 L44.1787126,14.5354823 L44.2806033,14.5389977 L44.4290635,14.5424405 L44.5503739,14.5441419 L44.726157,14.5453127 L44.8203267,14.5454545 C45.3255019,14.5454545 45.7350272,14.9524684 45.7350272,15.4545455 C45.7350272,15.9566225 45.3255019,16.3636364 44.8203267,16.3636364 L44.5316236,16.362881 L44.3295249,16.360742 L44.2218871,16.3586025 L44.091089,16.3545538 L44.030121,16.3519533 L43.9715028,16.3489311 L43.9147809,16.3454592 L43.8322623,16.339346 L43.751461,16.3320619 L43.697792,16.3265085 L43.6437533,16.3203641 L43.5888912,16.3136007 C43.0902273,16.24988 42.6726313,16.1117245 42.3086744,15.8547095 C41.5118522,15.2920184 41.1707833,14.3115986 41.1617108,12.7901047 L41.1615245,9.09090909 L40.246824,9.09090909 C39.7416488,9.09090909 39.3321234,8.68389525 39.3321234,8.18181818 C39.3321234,7.68870677 39.7271535,7.28729384 40.2198543,7.27311485 L40.246824,7.27272727 L41.1615245,7.27272727 L41.1615245,5.45454545 C41.1615245,4.95246841 41.5710499,4.54545455 42.076225,4.54545455 Z M50.7658802,7.27272727 C52.9550612,7.27272727 54.8439049,9.10175222 54.8814628,11.346008 L54.8820327,11.4141414 L54.8826671,11.6307408 L54.8826671,11.7257068 L54.8819736,11.8285117 C54.8763811,12.317634 54.48289,12.7129294 53.9940869,12.7268911 L53.9673321,12.7272727 L48.5433612,12.7272727 L48.5443599,12.7309714 C48.8028141,13.7318291 49.795081,14.5267784 50.9045339,14.5451302 L50.9437387,14.5454545 C51.705589,14.5454545 52.1457621,14.4340245 52.6619668,14.0814304 L52.7312796,14.0329774 C52.7661962,14.0080248 52.8015292,13.9819749 52.8373966,13.9547891 L52.9098787,13.8988914 L52.9839951,13.8398964 C53.3760687,13.5232903 53.9521507,13.5825195 54.2707104,13.9721885 C54.5892702,14.3618576 54.5296755,14.9344067 54.137602,15.2510127 C53.1377754,16.0583898 52.2798141,16.3636364 50.9437387,16.3636364 C48.6710009,16.3636364 46.6897239,14.5271496 46.6503256,12.2901317 L46.6497278,12.2222222 L46.6497278,11.4141414 C46.6497278,9.13007828 48.4893396,7.27272727 50.7658802,7.27272727 Z M61.2849365,3.63636364 C63.3056371,3.63636364 64.9437387,5.26441909 64.9437387,7.27272727 C64.9437387,8.13758172 64.6399538,8.93191848 64.1326505,9.55608616 L64.099278,9.59655051 L64.0866642,9.61131313 L64.1269379,9.6357199 C65.1365205,10.2587267 65.8184405,11.3566008 65.8567383,12.6153208 L65.857949,12.6671388 L65.8584392,12.7272727 C65.8584392,14.7154978 64.2529359,16.3310373 62.260142,16.3631492 L62.199637,16.3636364 L57.6261343,16.3636364 C57.1299801,16.3636364 56.7260902,15.9710289 56.7118237,15.4813497 L56.7114338,15.4545455 L56.7114338,4.54545455 C56.7114338,4.05234316 57.1064639,3.65093016 57.5991647,3.63675122 L57.6261343,3.63636364 L61.2849365,3.63636364 Z M78.6642468,4.54545455 C79.160401,4.54545455 79.5642909,4.93806199 79.5785574,5.42774118 L79.5789474,5.45454545 L79.5789474,7.27272727 L81.4083485,7.27272727 C81.9135236,7.27272727 82.323049,7.67974111 82.323049,8.18181818 C82.323049,8.6749296 81.9280189,9.07634253 81.4353181,9.09052152 L81.4083485,9.09090909 L79.5789474,9.09090909 L79.5789474,12.7272727 C79.5789474,12.7609952 79.5791156,12.7941072 79.5794486,12.8266182 L79.5809395,12.9223572 L79.5834004,13.0145454 L79.5868122,13.1032383 C79.5874589,13.1177322 79.5881445,13.1320829 79.5888684,13.1462914 L79.5936696,13.2298458 L79.5993728,13.3100439 L79.6059587,13.3869416 C79.6071289,13.399486 79.6083349,13.4118951 79.6095765,13.4241701 L79.6174499,13.4962212 C79.6215966,13.5314518 79.6260562,13.5654968 79.6308175,13.5983875 L79.6407393,13.6626391 C79.6424589,13.6730943 79.6442113,13.6834236 79.6459958,13.6936281 L79.6570884,13.7533669 L79.6689371,13.8101668 C79.6709739,13.8193915 79.6730413,13.8284963 79.675139,13.8374819 L79.6880855,13.8899775 C79.6903027,13.8984919 79.6925495,13.9068896 79.6948253,13.9151718 L79.7088259,13.9634883 C79.7183879,13.9947877 79.7284021,14.024276 79.7388427,14.0520274 L79.75482,14.0923611 C79.8118372,14.2290349 79.8802475,14.3188585 79.9562983,14.3725632 L79.9758214,14.3857049 C79.9791565,14.3878432 79.9825339,14.3899557 79.9859559,14.3920424 L80.0070438,14.4042578 L80.0293209,14.4158704 L80.0529038,14.4268925 L80.0779095,14.4373359 C80.0822021,14.4390288 80.0865589,14.4406982 80.0909822,14.4423442 L80.1183407,14.4519419 L80.1474136,14.4609907 L80.1783177,14.4695027 L80.2111699,14.4774898 L80.2460866,14.484964 L80.2831848,14.4919372 L80.3225811,14.4984213 L80.3643924,14.5044285 L80.4087352,14.5099704 L80.4557265,14.5150593 L80.5054828,14.519707 L80.5855572,14.5258774 L80.6725098,14.5311223 L80.7667344,14.5354823 L80.868625,14.5389977 L81.0170853,14.5424405 L81.1383956,14.5441419 L81.3141788,14.5453127 L81.4083485,14.5454545 C81.9135236,14.5454545 82.323049,14.9524684 82.323049,15.4545455 C82.323049,15.9566225 81.9135236,16.3636364 81.4083485,16.3636364 L81.1196454,16.362881 L80.9175467,16.360742 L80.8099089,16.3586025 L80.6791108,16.3545538 L80.6181428,16.3519533 L80.5595245,16.3489311 L80.5028026,16.3454592 L80.4202841,16.339346 L80.3394828,16.3320619 L80.2858138,16.3265085 L80.231775,16.3203641 L80.1769129,16.3136007 C79.6782491,16.24988 79.2606531,16.1117245 78.8966962,15.8547095 C78.0998739,15.2920184 77.7588051,14.3115986 77.7497326,12.7901047 L77.7495463,9.09090909 L76.8348457,9.09090909 C76.3296705,9.09090909 75.9201452,8.68389525 75.9201452,8.18181818 C75.9201452,7.68870677 76.3151753,7.28729384 76.8078761,7.27311485 L76.8348457,7.27272727 L77.7495463,7.27272727 L77.7495463,5.45454545 C77.7495463,4.95246841 78.1590716,4.54545455 78.6642468,4.54545455 Z M87.353902,7.27272727 C89.543083,7.27272727 91.4319267,9.10175222 91.4694846,11.346008 L91.4700544,11.4141414 L91.4706888,11.6307408 L91.4706888,11.7257068 L91.4699954,11.8285117 C91.4644029,12.317634 91.0709118,12.7129294 90.5821087,12.7268911 L90.5553539,12.7272727 L85.1313829,12.7272727 L85.1323817,12.7309714 C85.3908359,13.7318291 86.3831028,14.5267784 87.4925557,14.5451302 L87.5317604,14.5454545 C88.2936108,14.5454545 88.7337839,14.4340245 89.2499886,14.0814304 L89.3193014,14.0329774 C89.3542179,14.0080248 89.389551,13.9819749 89.4254184,13.9547891 L89.4979005,13.8988914 L89.5720169,13.8398964 C89.9640905,13.5232903 90.5401725,13.5825195 90.8587322,13.9721885 C91.1772919,14.3618576 91.1176973,14.9344067 90.7256238,15.2510127 C89.7257971,16.0583898 88.8678359,16.3636364 87.5317604,16.3636364 C85.2590227,16.3636364 83.2777456,14.5271496 83.2383474,12.2901317 L83.2377495,12.2222222 L83.2377495,11.4141414 C83.2377495,9.13007828 85.0773613,7.27272727 87.353902,7.27272727 Z M108.341198,7.27272727 C110.341692,7.27272727 111.9672,8.86838444 111.99951,10.848957 L112,10.9090909 L112,12.7272727 C112,14.7355809 110.361898,16.3636364 108.341198,16.3636364 C106.340704,16.3636364 104.715196,14.7679792 104.682886,12.7874067 L104.682396,12.7272727 L104.682396,10.9090909 C104.682396,8.90078273 106.320497,7.27272727 108.341198,7.27272727 Z M98.3303085,3.63636364 C100.044924,3.63636364 101.643217,4.47404171 102.614494,5.85744111 C102.903577,6.26918602 102.802081,6.83588263 102.387795,7.12319343 C101.97351,7.41050424 101.403316,7.3096304 101.114232,6.89788545 C100.483367,5.99933749 99.4439016,5.45454545 98.3303085,5.45454545 C96.5798766,5.45454545 95.1575569,6.85074545 95.1292855,8.58374646 L95.1288566,8.63636364 L95.1288566,11.3636364 C95.1288566,13.1209061 96.5621954,14.5454545 98.3303085,14.5454545 C99.6714049,14.5454545 100.972704,13.7340008 101.471526,12.6278259 L101.486737,12.5933333 L101.491908,12.5052593 L101.497109,12.4044474 L101.501896,12.2993596 L101.506283,12.1899272 L101.513891,11.9577535 L101.517134,11.8348747 L101.521324,11.6418733 L101.525707,11.3679683 L101.528136,11.1498114 L101.529931,10.9088889 L99.041846,10.9090909 C98.5366701,10.9091476 98.1270987,10.5021796 98.1270417,10.0001026 C98.1269858,9.50699121 98.5219698,9.10553394 99.0146692,9.0912997 L99.1075855,9.09090172 L102.447441,9.09090909 C102.952232,9.09144687 103.361162,9.49830303 103.361162,10 L103.360387,10.6944266 L103.357445,11.1682412 L103.355001,11.3885385 L103.351828,11.5987569 L103.347882,11.7992167 L103.344802,11.9275935 L103.341346,12.0518706 L103.337503,12.1721429 L103.330986,12.3452502 L103.326119,12.4559262 L103.320821,12.5629297 L103.315079,12.6663559 L103.308879,12.7662996 L103.30221,12.8628558 C103.29591,12.949402 103.277175,13.034606 103.246575,13.1158743 C102.527432,15.0258061 100.47609,16.3636364 98.3303085,16.3636364 C95.5796298,16.3636364 93.344556,14.1696078 93.3001296,11.4463205 L93.2994555,11.3636364 L93.2994555,8.63636364 C93.2994555,5.87493989 95.5518452,3.63636364 98.3303085,3.63636364 Z M24.6969147,5.45454545 L21.9528131,5.45454545 L21.9528131,14.5454545 L25.6116152,14.5454545 C26.6219655,14.5454545 27.4410163,13.7314268 27.4410163,12.7272727 C27.4410163,11.7342759 26.6400656,10.9272038 25.6452219,10.9093915 L25.6116152,10.9090909 L24.6969147,10.9090909 C23.48951,10.9090909 23.4774359,9.12709091 24.6606926,9.09145091 L24.6969147,9.09090909 L24.7305213,9.09060848 C25.7253651,9.07279616 26.5263158,8.26572414 26.5263158,7.27272727 C26.5263158,6.26857318 25.707265,5.45454545 24.6969147,5.45454545 Z M61.2849365,5.45454545 L58.5408348,5.45454545 L58.5408348,14.5454545 L62.199637,14.5454545 C63.2099873,14.5454545 64.0290381,13.7314268 64.0290381,12.7272727 C64.0290381,11.7342759 63.2280874,10.9272038 62.2332436,10.9093915 L62.199637,10.9090909 L61.2849365,10.9090909 C60.0775318,10.9090909 60.0654577,9.12709091 61.2487143,9.09145091 L61.2849365,9.09090909 L61.3185431,9.09060848 C62.3133868,9.07279616 63.1143376,8.26572414 63.1143376,7.27272727 C63.1143376,6.26857318 62.2952868,5.45454545 61.2849365,5.45454545 Z M108.341198,9.09090909 C107.342073,9.09090909 106.530022,9.88694778 106.5121,10.8756904 L106.511797,10.9090909 L106.511797,12.7272727 C106.511797,13.7314268 107.330847,14.5454545 108.341198,14.5454545 C109.340322,14.5454545 110.152374,13.7494159 110.170296,12.7606732 L110.170599,12.7272727 L110.170599,10.9090909 C110.170599,9.90493687 109.351549,9.09090909 108.341198,9.09090909 Z M50.7658802,9.09090909 C49.6825508,9.09090909 48.7712666,9.85785202 48.5373404,10.890731 L48.5332995,10.9090909 L52.9943956,10.9090909 L52.9917448,10.8972728 C52.7505918,9.88533303 51.8255727,9.1091398 50.8020447,9.09122566 L50.7658802,9.09090909 Z M87.353902,9.09090909 C86.2705725,9.09090909 85.3592884,9.85785202 85.1253622,10.890731 L85.1213212,10.9090909 L89.5824174,10.9090909 L89.5797666,10.8972728 C89.3386135,9.88533303 88.4135945,9.1091398 87.3900665,9.09122566 L87.353902,9.09090909 Z M9.5535935,1.81818182 L6.1935064,1.81818182 L6.06452691,1.81897683 L5.93986786,1.82033596 L5.81940068,1.82236247 C5.799665,1.82275646 5.78009864,1.82317874 5.76069886,1.82362953 L5.59052756,1.82846282 L5.48186439,1.83255926 L5.37687862,1.8373683 L5.27544168,1.84290122 L5.17742502,1.84916934 L5.08269995,1.85618396 C5.06717962,1.8574159 5.0517911,1.85867941 5.03653166,1.85997474 L4.94650287,1.8681303 L4.85944421,1.87706062 L4.77522712,1.886777 L4.69372283,1.89729074 C4.65362753,1.90274884 4.61450131,1.90851019 4.57627185,1.91458115 L4.50098719,1.92713776 C4.48863189,1.92929996 4.47637086,1.93149703 4.46420144,1.93372921 L4.39226272,1.94754545 L4.32239386,1.96221559 C4.28795546,1.96976601 4.25424504,1.97764088 4.22119024,1.98584655 L4.15593339,2.00270085 C4.1451958,2.00558403 4.13452569,2.00850445 4.1239204,2.01146233 L4.06104493,2.02966104 L3.9995963,2.04877015 L3.96936686,2.05866964 L3.90981733,2.07916556 L3.85137312,2.10060013 L3.82252532,2.11167295 L3.76549795,2.13453672 L3.70925438,2.1583674 L3.65366599,2.18317632 L3.5986042,2.20897477 L3.54394038,2.23577405 L3.51671753,2.24955254 L3.46240956,2.27787426 C2.95309254,2.54858951 2.56431583,2.93498194 2.29193011,3.44117544 L2.26388633,3.49428065 C2.25929481,3.50314603 2.25474437,3.51202035 2.25023481,3.52090614 L2.22366608,3.57437849 L2.19806781,3.62824683 L2.17342965,3.68263211 L2.15889788,3.71618246 C4.9968987,4.08062989 7.21403291,5.61814685 8.2323049,6.76602404 C9.14729734,5.28043527 10.810948,4.08357561 12.5262704,3.73761231 C12.0268439,2.62204457 10.9102028,1.83960955 9.60732128,1.81861486 L9.5535935,1.81818182 Z" id="Combined-Shape"></path>
            </g>
        </g>
    </g>
</svg>